<svg width="146" height="135" viewBox="0 0 146 135" fill="none" xmlns="http://www.w3.org/2000/svg">
<path d="M44.73 87.03H19.71L15.57 99H2.34L24.93 36.09H39.6L62.19 99H48.87L44.73 87.03ZM41.31 76.95L32.22 50.67L23.13 76.95H41.31ZM103.034 99L89.1738 74.52H83.2338V99H70.6338V36.18H94.2138C99.0738 36.18 103.214 37.05 106.634 38.79C110.054 40.47 112.604 42.78 114.284 45.72C116.024 48.6 116.894 51.84 116.894 55.44C116.894 59.58 115.694 63.33 113.294 66.69C110.894 69.99 107.324 72.27 102.584 73.53L117.614 99H103.034ZM83.2338 65.07H93.7638C97.1838 65.07 99.7338 64.26 101.414 62.64C103.094 60.96 103.934 58.65 103.934 55.71C103.934 52.83 103.094 50.61 101.414 49.05C99.7338 47.43 97.1838 46.62 93.7638 46.62H83.2338V65.07Z" fill="white"/>
<circle cx="132.5" cy="85.5" r="13.5" fill="#59C714"/>
</svg>
